<?xml version="1.0" encoding="UTF-8"?> <svg xmlns="http://www.w3.org/2000/svg" id="Business" width="60.632" height="60.755" viewBox="0 0 60.632 60.755"><path id="Path_38834" data-name="Path 38834" d="M413.281,162.1v8.959a.89.89,0,0,0,1.78,0V162.1A.89.89,0,0,0,413.281,162.1Zm0,0" transform="translate(-364.241 -142.11)" fill="#fff"></path><path id="Path_38835" data-name="Path 38835" d="M443.55,171.953a.89.89,0,0,0,.89-.89V162.1a.89.89,0,0,0-1.78,0v8.959A.89.89,0,0,0,443.55,171.953Zm0,0" transform="translate(-390.133 -142.11)" fill="#fff"></path><path id="Path_38836" data-name="Path 38836" d="M255.288,89a.89.89,0,0,0-.89.89v27.648a.89.89,0,1,0,1.78,0V89.89A.89.89,0,0,0,255.288,89Zm0,0" transform="translate(-224.211 -78.439)" fill="#fff"></path><path id="Path_38837" data-name="Path 38837" d="M181.652,89a.89.89,0,0,0-.89.89v27.648a.89.89,0,1,0,1.78,0V89.89A.89.89,0,0,0,181.652,89Zm0,0" transform="translate(-159.313 -78.439)" fill="#fff"></path><path id="Path_38838" data-name="Path 38838" d="M219.538,89a.89.89,0,0,0-.89.89v27.648a.89.89,0,1,0,1.78,0V89.89A.89.89,0,0,0,219.538,89Zm0,0" transform="translate(-192.703 -78.439)" fill="#fff"></path><path id="Path_38839" data-name="Path 38839" d="M36.721,395.6H47.612a.89.89,0,0,0,0-1.78H36.721A.89.89,0,0,0,36.721,395.6Zm0,0" transform="translate(-31.605 -347.089)" fill="#fff"></path><path id="Path_38840" data-name="Path 38840" d="M36.721,427.4H47.612a.89.89,0,0,0,0-1.78H36.721A.89.89,0,0,0,36.721,427.4Zm0,0" transform="translate(-31.605 -375.119)" fill="#fff"></path><path id="Path_38841" data-name="Path 38841" d="M36.721,459.214H47.612a.891.891,0,0,0,0-1.78H36.721A.89.89,0,0,0,36.721,459.214Zm0,0" transform="translate(-31.605 -403.154)" fill="#fff"></path><path id="Path_38842" data-name="Path 38842" d="M52.458,152.113a.891.891,0,0,0,0,1.78A.891.891,0,0,0,52.458,152.113Zm0,0" transform="translate(-45.476 -134.063)" fill="#fff"></path><path id="Path_38843" data-name="Path 38843" d="M82.622,152.113a.891.891,0,0,0,0,1.78A.891.891,0,0,0,82.622,152.113Zm0,0" transform="translate(-72.061 -134.063)" fill="#fff"></path><path id="Path_38844" data-name="Path 38844" d="M112.791,152.113a.891.891,0,0,0,0,1.78A.891.891,0,0,0,112.791,152.113Zm0,0" transform="translate(-98.649 -134.063)" fill="#fff"></path><path id="Path_38845" data-name="Path 38845" d="M52.458,185.5a.891.891,0,0,0,0,1.78A.891.891,0,0,0,52.458,185.5Zm0,0" transform="translate(-45.476 -163.492)" fill="#fff"></path><path id="Path_38846" data-name="Path 38846" d="M82.622,185.5a.891.891,0,0,0,0,1.78A.891.891,0,0,0,82.622,185.5Zm0,0" transform="translate(-72.061 -163.492)" fill="#fff"></path><path id="Path_38847" data-name="Path 38847" d="M112.791,185.5a.891.891,0,0,0,0,1.78A.891.891,0,0,0,112.791,185.5Zm0,0" transform="translate(-98.649 -163.492)" fill="#fff"></path><path id="Path_38848" data-name="Path 38848" d="M52.458,218.9a.891.891,0,0,0,0,1.78A.891.891,0,0,0,52.458,218.9Zm0,0" transform="translate(-45.476 -192.92)" fill="#fff"></path><path id="Path_38849" data-name="Path 38849" d="M82.622,218.9a.891.891,0,0,0,0,1.78A.891.891,0,0,0,82.622,218.9Zm0,0" transform="translate(-72.061 -192.92)" fill="#fff"></path><path id="Path_38850" data-name="Path 38850" d="M112.791,218.9a.891.891,0,0,0,0,1.78A.891.891,0,0,0,112.791,218.9Zm0,0" transform="translate(-98.649 -192.92)" fill="#fff"></path><path id="Path_38851" data-name="Path 38851" d="M52.458,252.285a.89.89,0,0,0,0,1.78A.89.89,0,0,0,52.458,252.285Zm0,0" transform="translate(-45.476 -222.348)" fill="#fff"></path><path id="Path_38852" data-name="Path 38852" d="M82.622,252.285a.89.89,0,0,0,0,1.78A.89.89,0,0,0,82.622,252.285Zm0,0" transform="translate(-72.061 -222.348)" fill="#fff"></path><path id="Path_38853" data-name="Path 38853" d="M112.791,252.285a.89.89,0,0,0,0,1.78A.89.89,0,0,0,112.791,252.285Zm0,0" transform="translate(-98.649 -222.348)" fill="#fff"></path><path id="Path_38854" data-name="Path 38854" d="M52.458,285.676a.891.891,0,0,0,0,1.78A.891.891,0,0,0,52.458,285.676Zm0,0" transform="translate(-45.476 -251.777)" fill="#fff"></path><path id="Path_38855" data-name="Path 38855" d="M82.622,285.676a.891.891,0,0,0,0,1.78A.891.891,0,0,0,82.622,285.676Zm0,0" transform="translate(-72.061 -251.777)" fill="#fff"></path><path id="Path_38856" data-name="Path 38856" d="M112.791,285.676a.891.891,0,0,0,0,1.78A.891.891,0,0,0,112.791,285.676Zm0,0" transform="translate(-98.649 -251.777)" fill="#fff"></path><path id="Path_38857" data-name="Path 38857" d="M52.458,319.066a.89.89,0,0,0,0,1.78A.89.89,0,0,0,52.458,319.066Zm0,0" transform="translate(-45.476 -281.205)" fill="#fff"></path><path id="Path_38858" data-name="Path 38858" d="M82.622,319.066a.89.89,0,0,0,0,1.78A.89.89,0,0,0,82.622,319.066Zm0,0" transform="translate(-72.061 -281.205)" fill="#fff"></path><path id="Path_38859" data-name="Path 38859" d="M112.791,319.066a.89.89,0,0,0,0,1.78A.89.89,0,0,0,112.791,319.066Zm0,0" transform="translate(-98.649 -281.205)" fill="#fff"></path><path id="Path_38860" data-name="Path 38860" d="M367.214,296.027a.89.89,0,0,0,.89-.89v-2.479a.89.89,0,0,0-1.78,0v2.479A.89.89,0,0,0,367.214,296.027Zm0,0" transform="translate(-322.856 -257.172)" fill="#fff"></path><path id="Path_38861" data-name="Path 38861" d="M329.863,301.922a.89.89,0,0,0,.89-.89v-8.24a.89.89,0,1,0-1.78,0v8.24A.89.89,0,0,0,329.863,301.922Zm0,0" transform="translate(-289.937 -257.252)" fill="#fff"></path><path id="Path_38862" data-name="Path 38862" d="M367.214,350.671a.89.89,0,0,0,.89-.89v-8.122a.89.89,0,0,0-1.78,0v8.122A.89.89,0,0,0,367.214,350.671Zm0,0" transform="translate(-322.856 -300.358)" fill="#fff"></path><path id="Path_38863" data-name="Path 38863" d="M329.863,394.027a.89.89,0,0,0,.89-.89v-2.479a.89.89,0,0,0-1.78,0v2.479A.89.89,0,0,0,329.863,394.027Zm0,0" transform="translate(-289.937 -343.543)" fill="#fff"></path><path id="Path_38864" data-name="Path 38864" d="M329.863,443.028a.89.89,0,0,0,.89-.89v-2.479a.89.89,0,0,0-1.78,0v2.479A.89.89,0,0,0,329.863,443.028Zm0,0" transform="translate(-289.937 -386.729)" fill="#fff"></path><path id="Path_38865" data-name="Path 38865" d="M367.214,443.028a.89.89,0,0,0,.89-.89v-2.479a.89.89,0,0,0-1.78,0v2.479A.89.89,0,0,0,367.214,443.028Zm0,0" transform="translate(-322.856 -386.729)" fill="#fff"></path><path id="Path_38866" data-name="Path 38866" d="M60.584,15.069,59.279,11.39a.89.89,0,0,0-.839-.592H56.769L52.691,3.936a.891.891,0,0,0-.765-.435h-1.1V.89a.89.89,0,0,0-1.78,0V3.5H47.43a.891.891,0,0,0-.788.477L43.069,10.8H41.422a.89.89,0,0,0-.839.592l-1.305,3.679a.905.905,0,0,0,.839,1.188h1.358v8.228l-5.2-4.371V6.7a.89.89,0,0,0-.89-.89H33.044V.89a.89.89,0,0,0-.89-.89H21.263a.89.89,0,0,0-.89.89V5.814H18.034a.89.89,0,0,0-.89.89v6.768h-1.78V4.692a.9.9,0,0,0-1.288-.8L6.252,7.812a.891.891,0,0,0-.492.8v4.864H3.168a.89.89,0,0,0-.89.89V42.155H.89a.89.89,0,0,0-.89.89v8.217a.89.89,0,0,0,1.78,0V43.935H19.344v15.04H1.78V55.533a.89.89,0,0,0-1.78,0v4.331a.89.89,0,0,0,.89.89H50.965a.89.89,0,0,0,0-1.78H49.792V31.89a.89.89,0,0,0-.318-.681l-2.227-1.872a.883.883,0,0,0,.088-.383V19.994a.89.89,0,0,0-1.78,0v7.92l-2.3-1.933V16.316H56.607V58.975H55.474a.89.89,0,0,0,0,1.78H57.5a.89.89,0,0,0,.89-.89V16.256h1.358a.907.907,0,0,0,.839-1.188ZM22.153,1.78h9.111V5.814H22.153ZM7.54,9.159l6.044-3.025v7.339H7.54Zm-3.482,33v-26.9H6.522a.9.9,0,0,0,.128.011h7.824a.906.906,0,0,0,.129-.011h2.464v26.9Zm43.954,16.82H36.273V31.089a.89.89,0,1,0-1.78,0V58.975H21.124V43.045a.89.89,0,0,0-.89-.89h-1.31V7.594H34.493V26.58a.89.89,0,1,0,1.78,0V22.439L48.012,32.3ZM47.968,5.28h3.451L54.7,10.8h-9.62Zm-6.592,9.2.674-1.9H57.812l.674,1.9Zm0,0" transform="translate(0 0)" fill="#fff"></path><path id="Path_38867" data-name="Path 38867" d="M444.033,276.5a.89.89,0,0,0,0,1.78A.89.89,0,0,0,444.033,276.5Zm0,0" transform="translate(-390.585 -243.69)" fill="#fff"></path><path id="Path_38868" data-name="Path 38868" d="M444.033,312.7a.89.89,0,0,0,0,1.78A.89.89,0,0,0,444.033,312.7Zm0,0" transform="translate(-390.585 -275.594)" fill="#fff"></path><path id="Path_38869" data-name="Path 38869" d="M444.033,348.9a.89.89,0,0,0,0,1.78A.89.89,0,0,0,444.033,348.9Zm0,0" transform="translate(-390.585 -307.497)" fill="#fff"></path><path id="Path_38870" data-name="Path 38870" d="M444.033,385.1a.891.891,0,0,0,0,1.78A.891.891,0,0,0,444.033,385.1Zm0,0" transform="translate(-390.585 -339.405)" fill="#fff"></path><path id="Path_38871" data-name="Path 38871" d="M444.033,421.3a.89.89,0,0,0,0,1.78A.89.89,0,0,0,444.033,421.3Zm0,0" transform="translate(-390.585 -371.309)" fill="#fff"></path><path id="Path_38872" data-name="Path 38872" d="M444.033,457.5a.891.891,0,0,0,0,1.78A.891.891,0,0,0,444.033,457.5Zm0,0" transform="translate(-390.585 -403.212)" fill="#fff"></path></svg> 