<?xml version="1.0" encoding="UTF-8"?> <svg xmlns="http://www.w3.org/2000/svg" id="Customers" width="58.813" height="54.483" viewBox="0 0 58.813 54.483"><path id="Path_38873" data-name="Path 38873" d="M42.3,39.051h.063a4.279,4.279,0,0,0,4.275-4.275V33.353a4.28,4.28,0,0,0-4.275-4.275H42.3a4.28,4.28,0,0,0-4.275,4.275v1.423A4.28,4.28,0,0,0,42.3,39.051Zm-2.461-5.7A2.464,2.464,0,0,1,42.3,30.892h.063a2.464,2.464,0,0,1,2.461,2.461v1.423a2.464,2.464,0,0,1-2.461,2.461H42.3a2.464,2.464,0,0,1-2.461-2.461Zm0,0" transform="translate(-33.098 -25.375)" fill="#830823"></path><path id="Path_38874" data-name="Path 38874" d="M14.264,116.6H12.475a.908.908,0,0,0-.62.246l-2.491,2.337-2.391-2.327a.908.908,0,0,0-.633-.257h-1.9A4.439,4.439,0,0,0,.02,121.436v10.407A2.782,2.782,0,0,0,2.8,134.625h.033a2.708,2.708,0,0,0,1.08-.238l.478,18.82a2.937,2.937,0,0,0,4.971,2.014,2.937,2.937,0,0,0,4.971-2.024l.477-18.795a2.783,2.783,0,0,0,3.875-2.561V121.436a4.439,4.439,0,0,0-4.422-4.839Zm-2.869,37.629a1.127,1.127,0,0,1-1.126-1.126V134.249H8.455V153.1a1.126,1.126,0,0,1-2.251.05l-.54-21.27h7.4l-.54,21.26a1.123,1.123,0,0,1-1.125,1.086ZM16.876,121.3c0,.03,0,.061,0,.092v10.449a.97.97,0,0,1-1.941,0v-2.215l.011-.421h-.011v-4.358H13.117v4.758l-.012.462H5.618L5.6,129.16H5.584v-4.312H3.77v6.943a1,1,0,0,1-.957,1.021.968.968,0,0,1-.979-.968v-10.45c0-.031,0-.061,0-.092a2.625,2.625,0,0,1,2.612-2.89H5.973l2.747,2.673.013.011a.9.9,0,0,0,.086.072l.007.005a.934.934,0,0,0,.1.063l.022.011a.939.939,0,0,0,.1.044l.01,0a.947.947,0,0,0,.113.03l.027,0a.875.875,0,0,0,.1.012l.016,0a.976.976,0,0,0,.115,0l.027,0a.941.941,0,0,0,.113-.02h0a.9.9,0,0,0,.118-.04l.009,0,.01,0a.924.924,0,0,0,.207-.126l.024-.021.027-.023,2.861-2.684h1.431a2.625,2.625,0,0,1,2.611,2.89Zm0,0" transform="translate(-0.001 -101.557)" fill="#830823"></path><path id="Path_38875" data-name="Path 38875" d="M351.927,39.051h.063a4.28,4.28,0,0,0,4.275-4.275V33.353a4.281,4.281,0,0,0-4.275-4.275h-.063a4.28,4.28,0,0,0-4.275,4.275v1.423A4.28,4.28,0,0,0,351.927,39.051Zm-2.461-5.7a2.464,2.464,0,0,1,2.461-2.461h.063a2.464,2.464,0,0,1,2.461,2.461v1.423a2.464,2.464,0,0,1-2.461,2.461h-.063a2.464,2.464,0,0,1-2.461-2.461Zm0,0" transform="translate(-302.615 -25.375)" fill="#830823"></path><path id="Path_38876" data-name="Path 38876" d="M323.89,116.6H322.1a.908.908,0,0,0-.62.246l-2.491,2.336-2.391-2.326a.908.908,0,0,0-.633-.257h-1.9a4.439,4.439,0,0,0-4.422,4.838v10.407a2.783,2.783,0,0,0,2.781,2.782h.032a2.721,2.721,0,0,0,1.08-.238l.478,18.819a2.937,2.937,0,0,0,4.971,2.015,2.938,2.938,0,0,0,4.971-2.024l.477-18.794a2.784,2.784,0,0,0,3.875-2.561V121.437a4.439,4.439,0,0,0-4.42-4.839Zm-2.87,37.629a1.127,1.127,0,0,1-1.126-1.126V134.249H318.08V153.1a1.126,1.126,0,0,1-2.251.05l-.54-21.27h7.4l-.54,21.26a1.122,1.122,0,0,1-1.125,1.086ZM326.5,121.3c0,.03,0,.061,0,.092v10.449a.97.97,0,1,1-1.94,0v-2.215l.011-.421h-.011v-4.358h-1.814v4.757l-.012.462h-7.489l-.023-.907h-.011v-4.312H313.4v6.943a1,1,0,0,1-.957,1.021.968.968,0,0,1-.979-.968v-10.45a.913.913,0,0,0,0-.092,2.625,2.625,0,0,1,2.612-2.89H315.6l2.748,2.673.013.01a.841.841,0,0,0,.087.072l.006.005a.95.95,0,0,0,.1.063l.021.011a.911.911,0,0,0,.1.044l.009,0a.868.868,0,0,0,.113.03l.027,0a1,1,0,0,0,.1.012l.016,0a.869.869,0,0,0,.115,0l.028,0a.844.844,0,0,0,.112-.02h0a.875.875,0,0,0,.118-.04l.01,0,.009-.005a.9.9,0,0,0,.207-.125l.024-.021.027-.023,2.861-2.684h1.431a2.625,2.625,0,0,1,2.611,2.89Zm0,0" transform="translate(-269.516 -101.557)" fill="#830823"></path><path id="Path_38877" data-name="Path 38877" d="M197.111,39.051h.063a4.28,4.28,0,0,0,4.275-4.275V33.353a4.28,4.28,0,0,0-4.275-4.275h-.063a4.281,4.281,0,0,0-4.275,4.275v1.423A4.28,4.28,0,0,0,197.111,39.051Zm-2.461-5.7a2.464,2.464,0,0,1,2.461-2.461h.063a2.464,2.464,0,0,1,2.461,2.461v1.423a2.464,2.464,0,0,1-2.461,2.461h-.063a2.464,2.464,0,0,1-2.461-2.461V33.353Zm0,0" transform="translate(-167.855 -25.375)" fill="#830823"></path><path id="Path_38878" data-name="Path 38878" d="M169.078,116.6h-1.79a.908.908,0,0,0-.62.246l-2.491,2.337-2.391-2.327a.907.907,0,0,0-.632-.257h-1.9a4.439,4.439,0,0,0-4.422,4.838v10.407a2.783,2.783,0,0,0,2.781,2.782h.032a2.721,2.721,0,0,0,1.08-.238l.478,18.819a2.937,2.937,0,0,0,4.971,2.015,2.937,2.937,0,0,0,4.971-2.024l.477-18.794a2.784,2.784,0,0,0,3.875-2.561V121.437a4.439,4.439,0,0,0-4.42-4.839Zm-2.87,37.629a1.127,1.127,0,0,1-1.126-1.126V134.249h-1.814V153.1a1.126,1.126,0,0,1-2.251.05l-.54-21.27h7.4l-.54,21.26a1.122,1.122,0,0,1-1.125,1.086ZM171.69,121.3a.791.791,0,0,0-.005.092v10.449a.97.97,0,1,1-1.94,0v-2.215l.011-.421h-.011v-4.358h-1.814v4.757l-.012.462h-7.488l-.023-.907H160.4v-4.312h-1.814v6.943a1,1,0,0,1-.957,1.021.968.968,0,0,1-.98-.968v-10.45c0-.031,0-.061,0-.092a2.625,2.625,0,0,1,2.613-2.89h1.531l2.748,2.673.013.01a.845.845,0,0,0,.086.072l.007.005a.858.858,0,0,0,.1.063l.022.011a.844.844,0,0,0,.1.043l.01,0a.947.947,0,0,0,.113.03l.027,0a.874.874,0,0,0,.1.012l.016,0a.88.88,0,0,0,.115,0l.027,0a.836.836,0,0,0,.113-.02h0a.9.9,0,0,0,.118-.04l.009,0,.01-.005a.9.9,0,0,0,.207-.125l.024-.021c.008-.008.018-.015.026-.023l2.861-2.684h1.431a2.624,2.624,0,0,1,2.611,2.89Zm0,0" transform="translate(-134.759 -101.557)" fill="#830823"></path><path id="Path_38879" data-name="Path 38879" d="M124.96,6.194V4.771A4.279,4.279,0,0,0,120.685.5h-.063a4.279,4.279,0,0,0-4.275,4.275V6.194a4.28,4.28,0,0,0,4.275,4.275h.063A4.28,4.28,0,0,0,124.96,6.194Zm-1.814,0a2.464,2.464,0,0,1-2.461,2.461h-.063a2.464,2.464,0,0,1-2.461-2.461V4.771a2.464,2.464,0,0,1,2.461-2.461h.063a2.464,2.464,0,0,1,2.461,2.461Zm0,0" transform="translate(-101.275 -0.496)" fill="#830823"></path><path id="Path_38880" data-name="Path 38880" d="M279.773,6.194V4.771A4.279,4.279,0,0,0,275.5.5h-.063a4.28,4.28,0,0,0-4.275,4.275V6.194a4.281,4.281,0,0,0,4.275,4.275h.063A4.28,4.28,0,0,0,279.773,6.194Zm-1.814,0A2.464,2.464,0,0,1,275.5,8.656h-.063a2.464,2.464,0,0,1-2.461-2.461V4.771a2.464,2.464,0,0,1,2.461-2.461h.063a2.464,2.464,0,0,1,2.461,2.461Zm0,0" transform="translate(-236.032 -0.496)" fill="#830823"></path></svg> 