<svg width="247" height="44" viewBox="0 0 247 44" fill="none" xmlns="http://www.w3.org/2000/svg">
<g clip-path="url(#clip0_190_2772)">
<path d="M0.0927734 24.0772H5.72469C10.0205 24.0772 13.2417 27.3097 13.2417 31.9356C13.2417 36.5614 10.0205 39.794 5.72469 39.794H0.0927734V24.0801V24.0772ZM5.61432 36.9369C8.57406 36.9369 10.1077 34.9012 10.1077 31.9356C10.1077 28.97 8.57406 26.9342 5.61432 26.9342H3.09317V36.9398H5.61432V36.9369ZM25.7109 39.791H22.7744V38.2188C22.1383 39.2366 20.9997 40.011 19.2889 40.011C16.945 40.011 14.9728 38.5502 14.9728 35.0537V28.2806H17.9093V34.5668C17.9093 36.2476 18.8068 37.3564 20.3433 37.3564C21.8798 37.3564 22.7773 36.2505 22.7773 34.5668V28.2806H25.7138V39.791H25.7109ZM30.698 24.0772V29.8324H30.7648C31.0495 29.19 32.3652 28.0606 34.4042 28.0606C37.0561 28.0606 39.8822 30.0524 39.8822 34.0358C39.8822 38.0193 37.0561 40.011 34.4042 40.011C32.3652 40.011 31.0524 38.8817 30.7648 38.2393H30.698V39.7881H27.7615V24.0742H30.698V24.0772ZM33.8088 37.3564C35.4528 37.3564 36.9864 36.183 36.9864 34.0358C36.9864 31.8886 35.4528 30.7153 33.8088 30.7153C32.1648 30.7153 30.6312 31.8652 30.6312 34.0358C30.6312 36.2065 32.1648 37.3564 33.8088 37.3564ZM40.8116 34.0358C40.8116 30.0524 43.6378 28.0606 46.2896 28.0606C48.3286 28.0606 49.6415 29.19 49.929 29.8324H49.9958V28.2836H52.9323V39.794H49.9958V38.2452H49.929C49.6444 38.8876 48.3286 40.0169 46.2896 40.0169C43.6378 40.0169 40.8116 38.0252 40.8116 34.0417V34.0358ZM46.8822 37.3564C48.5261 37.3564 50.0597 36.2065 50.0597 34.0358C50.0597 31.8652 48.5261 30.7153 46.8822 30.7153C45.2382 30.7153 43.7046 31.8886 43.7046 34.0358C43.7046 36.183 45.2382 37.3564 46.8822 37.3564ZM56.6327 23.2793C57.4867 23.2793 58.2331 24.0332 58.2331 24.9396C58.2331 25.846 57.4867 26.5764 56.6327 26.5764C55.7788 26.5764 55.0323 25.8225 55.0323 24.9396C55.0323 24.0566 55.7556 23.2793 56.6327 23.2793ZM55.163 28.2806H58.0995V39.791H55.163V28.2806ZM64.8933 24.0742H68.2016L73.2874 35.9161L78.3733 24.0742H81.6816V39.7881H78.6783V29.9174H78.5679L74.3824 39.7881H72.1692L68.004 29.9174H67.8937V39.7881H64.8904V24.0742H64.8933ZM94.7172 39.7881H91.7807V38.2158C91.1446 39.2337 90.006 40.0081 88.2952 40.0081C85.9513 40.0081 83.9791 38.5473 83.9791 35.0508V28.2777H86.9156V34.5638C86.9156 36.2446 87.8131 37.3534 89.3496 37.3534C90.8861 37.3534 91.7836 36.2476 91.7836 34.5638V28.2777H94.7201V39.7881H94.7172ZM96.7678 28.2777H99.7043V29.85C100.34 28.8321 101.479 28.0577 103.19 28.0577C105.534 28.0577 107.506 29.5185 107.506 33.015V39.7881H104.569V33.502C104.569 31.8212 103.672 30.7124 102.135 30.7124C100.599 30.7124 99.7014 31.8182 99.7014 33.502V39.7881H96.7649V28.2777H96.7678ZM111.108 23.2764C111.961 23.2764 112.708 24.0302 112.708 24.9366C112.708 25.843 111.961 26.5734 111.108 26.5734C110.254 26.5734 109.507 25.8196 109.507 24.9366C109.507 24.0537 110.23 23.2764 111.108 23.2764ZM109.638 28.2777H112.574V39.7881H109.638V28.2777ZM114.149 34.0329C114.149 30.1374 117.152 28.0577 120.152 28.0577C122.168 28.0577 123.966 29.0081 125.061 30.8913L122.915 32.2846C122.322 31.3782 121.358 30.7358 120.176 30.7358C118.532 30.7358 117.042 31.9766 117.042 34.0329C117.042 36.0892 118.532 37.33 120.176 37.33C121.358 37.33 122.322 36.6876 122.915 35.7812L125.061 37.1745C123.966 39.0342 122.168 40.0081 120.152 40.0081C117.149 40.0081 114.149 37.9284 114.149 34.0329ZM127.928 23.2764C128.782 23.2764 129.528 24.0302 129.528 24.9366C129.528 25.843 128.782 26.5734 127.928 26.5734C127.074 26.5734 126.327 25.8196 126.327 24.9366C126.327 24.0537 127.051 23.2764 127.928 23.2764ZM126.458 28.2777H129.395V39.7881H126.458V28.2777ZM131.59 28.2777H134.527V29.8265H134.594C134.878 29.1841 136.194 28.0548 138.233 28.0548C140.885 28.0548 143.711 30.0465 143.711 34.03C143.711 38.0134 140.885 40.0052 138.233 40.0052C136.194 40.0052 134.881 38.8758 134.594 38.2334H134.527V43.9886H131.59V28.2748V28.2777ZM137.641 37.3534C139.285 37.3534 140.818 36.1801 140.818 34.0329C140.818 31.8857 139.285 30.7124 137.641 30.7124C135.997 30.7124 134.463 31.8622 134.463 34.0329C134.463 36.2036 135.997 37.3534 137.641 37.3534ZM144.643 34.0329C144.643 30.0494 147.47 28.0577 150.121 28.0577C152.16 28.0577 153.473 29.187 153.761 29.8294H153.828V28.2806H156.764V39.791H153.828V38.2422H153.761C153.476 38.8846 152.16 40.014 150.121 40.014C147.47 40.014 144.643 38.0222 144.643 34.0388V34.0329ZM150.714 37.3534C152.358 37.3534 153.892 36.2036 153.892 34.0329C153.892 31.8622 152.358 30.7124 150.714 30.7124C149.07 30.7124 147.536 31.8857 147.536 34.0329C147.536 36.1801 149.07 37.3534 150.714 37.3534ZM158.818 24.0742H161.754V39.7881H158.818V24.0742ZM165.408 23.2764C166.262 23.2764 167.009 24.0302 167.009 24.9366C167.009 25.843 166.262 26.5734 165.408 26.5734C164.554 26.5734 163.808 25.8196 163.808 24.9366C163.808 24.0537 164.531 23.2764 165.408 23.2764ZM163.938 28.2777H166.875V39.7881H163.938V28.2777ZM169.811 36.5996V30.6449H168.191V28.2777H169.811V25.3326H172.771V28.2777H175.115V30.6449H172.771V36.1126C172.771 36.711 173.099 37.286 174.064 37.286C174.328 37.286 174.72 37.242 175.138 37.11V39.3892C174.7 39.7881 173.866 39.9201 173.143 39.9201C171.214 39.9201 169.811 38.9697 169.811 36.5996ZM180.593 39.6766L175.859 28.2777H178.862L182.019 36.2681L185.153 28.2777H188.177L183.379 39.7881L181.604 43.9945H178.734L180.596 39.6796L180.593 39.6766Z" fill="#353F56"/>
<path d="M226.784 2.7456C226.883 2.64586 226.965 2.56373 227.031 2.50213C227.101 2.44053 227.159 2.39946 227.214 2.376C227.293 2.3408 227.377 2.32026 227.461 2.32026C227.545 2.32026 227.63 2.33786 227.708 2.376C227.766 2.39946 227.821 2.44053 227.891 2.50213C227.961 2.56373 228.039 2.64293 228.138 2.7456L246.576 21.1083C246.675 21.208 246.756 21.2901 246.814 21.3576C246.875 21.428 246.916 21.4867 246.939 21.5424C246.974 21.6216 246.994 21.7067 246.994 21.7917C246.994 21.8768 246.974 21.9619 246.939 22.0411C246.916 22.0968 246.875 22.1555 246.814 22.2259C246.753 22.2963 246.675 22.3755 246.576 22.4752C246.576 22.4752 225.637 43.5923 225.57 43.6539C225.405 43.8181 225.143 43.9941 224.74 43.9941H193.748C193.594 43.9941 193.432 43.8416 193.371 43.7741C193.31 43.7037 193.269 43.6451 193.246 43.5893C193.211 43.5101 193.19 43.4251 193.19 43.34C193.19 43.2549 193.211 43.1699 193.246 43.0907C193.269 43.0349 193.31 42.9763 193.371 42.9059C193.432 42.8355 226.782 2.74266 226.782 2.74266L226.784 2.7456ZM210.699 0.00586302C210.624 0.0117297 210.565 0.0205297 210.519 0.041063C210.452 0.0645297 210.394 0.102663 210.345 0.15253C210.295 0.202396 210.258 0.263996 210.234 0.32853C210.214 0.375463 210.205 0.43413 210.199 0.510396C210.194 0.586663 210.194 0.68053 210.194 0.79493L219.535 10.2227L226.639 1.66613L225.393 0.331463C225.187 0.123196 225.117 0.00879635 224.928 0.00879635C224.853 0.00879635 224.76 0.00292969 224.647 0.00292969H210.984C210.868 0.00292969 210.775 0.00292969 210.702 0.00879635L210.699 0.00586302Z" fill="#353F56"/>
<path d="M10.7149 18.2307C10.7149 19.052 10.0294 19.7208 9.21904 19.7208C8.3622 19.7208 7.7232 19.052 7.7232 18.2307C7.7232 17.4093 8.38543 16.7405 9.21904 16.7405C10.0526 16.7405 10.7149 17.3888 10.7149 18.2307ZM5.58254 16.7405C4.74894 16.7405 4.0867 17.3888 4.0867 18.2307C4.0867 19.0725 4.72861 19.7208 5.58254 19.7208C6.43648 19.7208 7.07839 19.052 7.07839 18.2307C7.07839 17.4093 6.39291 16.7405 5.58254 16.7405ZM44.6749 16.676C43.818 16.676 43.1558 17.3243 43.1558 18.1867C43.1558 19.0491 43.818 19.7208 44.6749 19.7208C45.5317 19.7208 46.2143 19.052 46.2143 18.1867C46.2143 17.3213 45.5288 16.676 44.6749 16.676ZM43.1122 12.5517H19.2281V9.57147C19.2281 6.61173 18.0953 4.77547 14.2236 4.77547C11.7199 4.77547 9.62568 5.18613 9.62568 5.18613V12.5517H8.44934C4.72861 12.5517 3.40123 11.2787 3.40123 8.404C3.40123 7.28053 3.65683 5.89893 4.10703 4.928L0.470537 5.51173C0.1917 6.41813 0 7.69413 0 8.75013C0 12.6163 1.98962 15.2299 8.08336 15.2299H12.873V7.56213C12.873 7.56213 13.451 7.4536 14.029 7.4536C15.5481 7.4536 15.975 8.08133 15.975 9.91467V15.2269H46.4902V5.07467H43.1122V12.5488V12.5517ZM50.7686 4.49387L49.9786 7.32453C53.0806 8.0168 54.6201 9.85307 54.7914 12.5517H48.8022V15.2299H58.1055V13.5667C58.1055 8.2544 55.4333 5.5968 50.7686 4.49387ZM68.4864 3.696C69.32 3.696 69.9822 3.0272 69.9822 2.20587C69.9822 1.38453 69.2967 0.715733 68.4864 0.715733C67.676 0.715733 66.9905 1.38453 66.9905 2.20587C66.9905 3.0272 67.6324 3.696 68.4864 3.696ZM72.1229 3.696C72.9361 3.696 73.6187 3.0272 73.6187 2.20587C73.6187 1.38453 72.9332 0.715733 72.1229 0.715733C71.3125 0.715733 70.627 1.38453 70.627 2.20587C70.627 3.0272 71.2689 3.696 72.1229 3.696ZM111.111 16.7405C110.277 16.7405 109.615 17.3888 109.615 18.2307C109.615 19.0725 110.257 19.7208 111.111 19.7208C111.965 19.7208 112.606 19.052 112.606 18.2307C112.606 17.4093 111.921 16.7405 111.111 16.7405ZM107.474 16.7405C106.641 16.7405 105.978 17.3888 105.978 18.2307C105.978 19.0725 106.62 19.7208 107.474 19.7208C108.328 19.7208 108.97 19.052 108.97 18.2307C108.97 17.4093 108.285 16.7405 107.474 16.7405ZM111.047 15.2299H70.5835C66.3922 15.2299 64.7889 13.2851 64.7889 10.2403C64.7889 7.4096 66.52 4.77547 70.627 4.77547C73.2789 4.77547 75.2249 5.53227 75.2249 5.53227V12.5517H107.669V5.0776H111.047V15.2299ZM71.9515 7.7792C71.9515 7.7792 71.2893 7.45653 70.2843 7.45653C68.9366 7.45653 68.1669 8.55947 68.1669 9.94107C68.1669 11.6043 69.0005 12.5547 70.9262 12.5547H71.9515V7.78213V7.7792ZM184.421 5.08053V12.5547H131.085V0H127.707V12.5488H122.618C122.299 7.90533 119.667 5.52933 115.325 4.49093L114.535 7.3216C117.637 8.01387 119.177 9.85013 119.348 12.5488H113.359V15.2269H187.805V5.07467H184.427L184.421 5.08053ZM185.984 16.6789C185.127 16.6789 184.465 17.3272 184.465 18.1896C184.465 19.052 185.127 19.7237 185.984 19.7237C186.841 19.7237 187.524 19.0549 187.524 18.1896C187.524 17.3243 186.838 16.6789 185.984 16.6789Z" fill="#353F56"/>
</g>
<defs>
<clipPath id="clip0_190_2772">
<rect width="247" height="44" fill="white"/>
</clipPath>
</defs>
</svg>
