<svg width="120" height="52" viewBox="0 0 120 52" xmlns="http://www.w3.org/2000/svg">
    <g fill="#E4002B" fill-rule="nonzero">
        <path d="M82.471 21.207c-1.542-.335-2.966 2.198-2.966 2.198s-.218-.168-.277-.147c-.06.021-1.127 1.445-1.285 1.675-1.662 2.365-3.303 2.093-3.323 2.093-3.065.042-4.074-2.847-4.133-2.951-.692-1.57-.791-1.466-.969-1.57-.237-.147-1.147-.042-2.472 1.13-1.325 1.214-2.393 4.417-2.413 4.458-1.621 5.61-2.373 5.464-2.986 5.443-.593-.021-1.087-.754-1.582-1.759-.494-1.004-.771-3.6-.751-4.646 0-1.068.099-1.466 0-1.445-.1.021-.317.398-.356.691-.277 1.486-.04 3.433-.04 3.58.1 1.862 1.226 5.316 2.808 5.337 1.563.02 2.215-2.45 2.354-2.847.316-.9.77-3.056 1.72-5.233.93-2.114 2.789-2.114 2.967-2.072.178.063 1.918 4.312 4.904 4.48 2.986.188 3.995-2.387 4.252-2.868.257-.482.494-.607.573-.67.06-.063.257.105.257.105.495.963 4.015 3.035 4.747 2.323.731-.712 1.186-2.156 1.206-2.512 0-.335-.672-4.458-2.235-4.793m.218 4.584c-.06-.042-1.899-.649-2.354-1.465 0 0 1.602-2.03 2.472 1.465.02.02-.059.02-.118 0M50.126 16.517l-.06-.159h.902l.401-.02s-.08-.277-.4-.475c-.181-.1-2.606-1.567-3.207-1.745-.02.02-.461 2.696-.461 2.696s.6.04.741.258c.14.218 1.303 1.825 1.784 2.3.46.456 2.365 2.36 6.273 3.927 1.463.396 1.904 1.289 1.904 1.289s-1.623 1.288-2.986 2.2c-.441.278-6.734 4.284-9.42 5.454-.08.04-2.626 1.17-3.247.119-.541-.913-.641-1.845.421-4.581 0 .02.3-.773.3-.773l.201-.813s-.641.694-1.503 3.232c-.461 1.15-1.082 4.204.04 5.235 1.142 1.05 2.285.674 4.37-.258 2.404-1.07 10.742-6.068 11.964-7.674.521-.694.602-1.566.642-1.904.02-.198.24-2.101-.642-2.934-.56-.536-.942-.793-2.104-1.349-1.163-.555-4.27-2.102-5.492-3.53.02-.039-.42-.495-.42-.495"/>
        <path d="M47.059 22.657 47.83 20l1.582 1.959-.785 2.747zM23.53 36.775l.77-2.657 1.582 1.959-.784 2.747zM29.412 36.752l.771-2.634 1.582 1.936-.772 2.77zM58.824 20.304l.771-2.657 1.581 1.959-.784 2.747zM63.53 17.951l.77-2.657 1.582 1.959L65.098 20zM42.573 9.451l-.06-.2 1.3.04s.04-.22-.2-.48c-.18-.2-2.7-2.503-2.7-2.503l-.8 2.703s.56.32.6.46c.04.14.58 1.681.84 2.142.28.46 1.8 3.162 2.1 3.583 0 .02.3.42.32 1.1 0 .02-.06.14-.1.18-.04.04-1.72 1.101-3.66 1.302l-1.18.02-1.12 2.161s1.28.46 1.38.56c.1.1 1.74.761 2.76 1.062.94.28 2.36.6 2.6.78.54.24.6.74.6.74s-3.66 2.863-11.819 4.645c-.74.12-11.598 2.361-21.236-1.201-.16-.08-4.72-1.582-7.979-4.264-.32-.32-2.88-2.602-2.88-2.602L0 18.238l.62 1.401s3.9 5.745 4.1 5.945c.2.2 3.659 3.182 12.177 5.124 3.74.86 11.118.5 14.518-.08 3.38-.58 11.598-2.802 14.157-5.785.16-.2 1.44-2.602 1.36-3.262.1-.821-.62-1.522-1.08-1.642-.46-.12-2.72-.74-2.96-.82.08.08 2.26-1.241 2.22-3.663.08-1.902-.38-2.402-.5-2.682-.12-.28-1.9-3.063-1.9-3.063l-.14-.26z"/>
        <path d="m28.135 14.795-1.34 2.222v.06s3.34.04 3.76.18c.34.12-.02.34-.02.34s-2.78 1.181-3.6 1.482c-.16.06-.22.22-.22.22s3.12-.22 3.88-.56c.96-.721 2.14-2.623 2.24-2.843.08-.22.08-.32.02-.38s-.48-.78-2.42-.82c-1.96 0-2.3.1-2.3.1M47.012.684S35.214 4.587 28.755 6.729c-6.439 2.142-15.837 5.985-15.837 5.985l-1.36 2.321L28.415 8.81c.74-.28 17.537-6.104 17.537-6.104l1.06-2.022zM56.51 3.326c1.12-2.502.24-3.062.02-3.202-.52-.34-1.18.08-1.78.56-.659.52-1.039 1.1-.919 1.902.1.74 1.36 1.54 1.56 1.66.02 0 .02.02.02.02l.04.02c-.54.741-2.7 2.783-4.9 4.244-1.38.921-5.159 3.503-5.159 3.503s.84-.32.96-.4c.52-.24 2.94-1.602 4.98-2.782 2.04-1.181 4.439-4.284 4.439-4.284s.12.08.14.06c.42.18.88 1.101.88 1.101s0 .1.14-.08.26-1.221.26-1.501c0-.3-.68-.82-.68-.82m-.5-.301s-1.04-.9-1.2-1c-.26-.161-.26-.421-.26-.421 1.02-.7 1.44-.26 1.56.06.28.54-.1 1.36-.1 1.36M70.928 3.987c1.12-2.502.24-3.063.02-3.203-.52-.34-1.18.08-1.78.56-.66.52-1.02 1.101-.94 1.902.1.74 1.36 1.541 1.56 1.661.02.02.04.02.04.02l.04.02c-.54.741-2.72 2.783-4.899 4.224-1.4.92-5.159 3.503-5.159 3.503s.86-.32.96-.4c.52-.241 2.94-1.602 4.979-2.783 2.04-1.18 4.44-4.283 4.44-4.283s.12.08.14.08c.42.18.88 1.1.88 1.1s0 .1.14-.08.26-1.24.26-1.5c0-.28-.68-.821-.68-.821m-.48-.28s-1.04-.921-1.2-1.021c-.26-.16-.26-.42-.26-.42 1.02-.701 1.44-.26 1.56.04.26.58-.1 1.4-.1 1.4M113.041 9.971c.88-2.001.18-2.442.02-2.562-.42-.28-.94.08-1.42.44-.54.421-.82.881-.74 1.522.08.6 1.08 1.24 1.24 1.341.02 0 .02.02.02.02l.02.02c-.44.58-2.16 2.222-3.919 3.383-1.12.74-4.12 2.802-4.12 2.802s.68-.24.78-.32c.42-.2 2.36-1.281 3.98-2.222 1.64-.94 3.56-3.423 3.56-3.423l.1.06c.34.14.7.88.7.88s0 .081.1-.06c.12-.14.2-.98.2-1.2.02-.26-.52-.68-.52-.68m-.4-.24s-.84-.721-.96-.801c-.2-.12-.2-.34-.2-.34.8-.561 1.14-.2 1.26.04.2.44-.1 1.1-.1 1.1M77.367 5.988v.32s-.44-.36-1.04-.54c-.02 0-.14-.06-.14-.08 0-.02.12-1.08.2-1.181.08-.08.3-.2.36-.2s1.32.5 1.9 2.802l.26 1.061.08-.6s.26-2.543.32-2.783c.06-.32.32-.9.72-.9.4 0 1.12.66 1.12.66l-.36.94s-.56-.52-.8-.52c-.48-.02-.56.761-.68 2.082-.12 1.341-.2 1.641-.3 1.842l-.18.36c-.42-2.202-1.46-3.263-1.46-3.263M98.244 12.153v.3s-.44-.34-1.04-.54c-.02 0-.14-.06-.14-.1 0-.04.12-1.081.2-1.181.08-.08.3-.2.36-.2s1.32.5 1.9 2.802l.26 1.06.08-.6s.28-2.542.32-2.782c.06-.32.32-.9.72-.9.4 0 1.119.66 1.119.66l-.36.94s-.56-.52-.8-.52c-.48-.04-.56.76-.68 2.082-.12 1.341-.2 1.641-.3 1.841l-.18.36c-.42-2.201-1.46-3.262-1.46-3.262M78.107 15.916s-.24.1-.34.22c-.1.12-.84 1.081-1.24 2.763-.44 1.76.54 2.061.54 2.061s.62.3 1.18-1.1c0 0 .2-.461.2-.701 0 0 0-.2-.16-.06-.28.26-.24.58-.34.68-.2.22-.2.18-.26.2-.06.02-.98 0-.68-1.4.34-1.062.5-1.402.8-2.022 0-.02.3-.64.3-.64M35.034 20.18s-.24.08-.34.22c-.1.12-.84 1.08-1.26 2.762-.42 1.761.54 2.062.54 2.062s.62.3 1.2-1.101c0 0 .2-.46.2-.7 0 0-.02-.181-.16-.06-.28.26-.24.56-.34.68-.18.22-.2.18-.26.2-.06.02-.98-.02-.68-1.401.34-1.061.5-1.401.8-2.042 0 .02.3-.62.3-.62M86.466 8.89s-5.98 2.082-8.639 3.023c-2.66.94-7.639 3.082-7.639 3.082l-.48 1.301s14.618-5.724 15.798-5.944c-.02-.02.96-1.461.96-1.461"/>
        <path d="M119.16 22.181c-.96-.12-4-.8-7.299-2.502-3.3-1.701-5.019-1.26-5.059-1.24-3.2.8-3.26 4.383-3.24 4.843.04.46.6 2.602.6 2.602s-.28-.08-.32-.08c-2.379-.96-3.879-3.583-4.119-3.923-1.98-3.343-6.139-7.646-6.539-8.087-.38-.42-3.959-3.763-3.959-3.763l2.14-1.12c6.579-2.803 12.978-4.604 16.217-5.044 2.28-.3 1.98 1.24 1.86 1.4-.12.16-1.2 2.022-1.34 2.262-.16.24-1.54 3.023-1.84 3.884-.46 1.34-.28 1.68-.28 1.68s.44-.86.44-.9c.64-1.521 1.9-3.723 2.96-5.564.66-1.141 1.5-2.222 1.6-4.043.1-1.862-4.94-.781-5.02-.741C95.864 4.227 88.725 7.99 88.725 7.99l-.78 1.441-.54 1.741s2.18 2.642 2.22 2.642c3.06 3.683 6.959 9.908 6.999 10.028.08.28.26.56.1.761-.34.38-2.52 1.06-2.52 1.06l-.2-.34c-3.3-5.984-5.919-.98-5.999-.66-1 1.982.04 2.862.04 2.902 1.34 1.802 4.84.6 4.94.761.12.16.32.74.32.78-4.6 5.005-9.419 6.186-10.259 6.246-4.819.34-4.54-3.703-4.4-5.104.14-1.281 1.12-4.244 1.12-4.244l-.44.44s-.06.12-.22.4c-1.079 2.022-1.359 4.825-1.359 5.205-.08 7.046 5.6 6.926 10.078 3.843 4.6-3.162 5.26-4.303 5.84-5.164.46-.7.68-2.842.68-2.842l1.759-.78s1.1-.842 1.3-2.643c.2-1.801-.32-2.762-.32-2.762l.04-.26s1.24 2.101 3.32 4.743c2.079 2.622 4.379 2.402 4.379 2.402l.16 1.682.2-.06s.08-.02.26-.42c.18-.421.22-1.362.22-1.362s.58-.14.6-.12c2.199-.36 7.978-3.323 10.238-3.723 1.02-.18 2.38.02 2.38.02L120 22.241c-.04 0-.22 0-.84-.06m-29.895 3.483c-.02-.02-.08-.16-.04-.22.06-.06.38-.82 1.28-.62.02 0 1.1.4 1.48 1.18 0 0-2.06.2-2.72-.34m21.157-1.02c-1.94.7-4.86 1.32-4.86 1.32s-1.08-3.443-1.02-3.703c.06-.26.54-1.02 1.24-1.26.7-.241 2.22-.321 3.78.44 1.5.74 3.9 1.781 4.1 1.841l.359.1s-3.24 1.121-3.6 1.261M5.24 45.66c-.32-.18-.7-.26-1.14-.26-.3 0-.6.06-.9.18-.3.12-.56.32-.8.56-.24.26-.42.56-.56.961-.14.38-.22.82-.22 1.341 0 .4.06.74.16 1.08.1.341.26.621.46.862.2.24.44.44.74.58.3.14.62.2 1 .2.08 0 .18 0 .28-.02.1-.02.22-.02.32-.04s.2-.04.28-.06c.08-.02.14-.04.18-.08.02-.08.02-.18.02-.28v-.4c0-.52-.02-.921-.04-1.161s-.04-.42-.04-.5c.06.02.16.02.26.04s.26.02.46.02c.239 0 .419 0 .519-.02.12 0 .2-.02.28-.04-.02.06-.02.14-.04.26s-.02.26-.02.4c0 .16-.02.32-.02.48V51.044c0 .14.02.24.02.3-.42.12-.86.22-1.3.3-.44.08-.88.1-1.3.1-.56 0-1.08-.08-1.54-.22-.48-.14-.88-.36-1.22-.64-.34-.28-.6-.62-.799-1.02-.2-.401-.28-.861-.28-1.342 0-.62.1-1.16.3-1.621.2-.46.48-.86.86-1.161.36-.3.8-.54 1.28-.7.5-.16 1.04-.24 1.6-.24.5 0 .92.06 1.28.16s.719.26 1.079.44c-.06.18-.1.34-.16.5-.04.16-.1.32-.12.5h-.14c-.18-.32-.44-.54-.74-.74M8.059 46.94c.18-.42.44-.8.76-1.12.32-.32.72-.56 1.18-.76.46-.18.98-.28 1.54-.28.519 0 .999.08 1.459.22.44.14.84.36 1.18.64.34.28.6.66.78 1.1.2.441.28.961.28 1.542 0 .48-.1.94-.28 1.361-.18.42-.44.8-.78 1.1-.32.321-.72.561-1.18.741-.46.18-.96.26-1.5.26-.52 0-1-.06-1.46-.18-.44-.14-.84-.34-1.18-.62-.34-.28-.6-.64-.8-1.08-.2-.441-.3-.962-.3-1.582.02-.48.12-.92.3-1.341m5.42 0c-.1-.34-.24-.62-.44-.86-.18-.241-.42-.421-.68-.541a2.07 2.07 0 0 0-.86-.18c-.34 0-.62.08-.9.24-.26.16-.48.38-.66.64-.18.28-.32.6-.42.961-.1.36-.14.76-.14 1.181 0 .52.06.96.16 1.321.12.36.26.64.46.86.18.22.4.381.66.481.26.1.5.14.78.14.3 0 .58-.06.84-.18.28-.12.5-.32.7-.56.2-.26.36-.58.48-.961.12-.4.18-.86.18-1.381 0-.46-.06-.84-.16-1.161M20.397 47.321c.32-.84.6-1.641.86-2.402.16.02.3.04.42.04s.26-.02.44-.04c-.16.38-.36.84-.6 1.381-.22.54-.46 1.101-.72 1.722-.24.6-.5 1.22-.74 1.841-.24.62-.46 1.201-.64 1.762-.14 0-.28-.02-.42-.02-.16 0-.3 0-.44.02-.1-.26-.22-.58-.36-.941-.14-.38-.3-.76-.46-1.181-.16-.42-.32-.84-.5-1.281-.18-.44-.34-.86-.52-1.261-.16-.4-.32-.78-.46-1.141-.14-.34-.26-.64-.38-.9.16.02.3.02.44.02.14.02.3.02.44.02s.28 0 .44-.02c.14 0 .28-.02.42-.02.12.36.24.74.38 1.14.14.4.28.82.44 1.241.14.42.3.84.46 1.261.16.42.32.84.46 1.241.38-.82.72-1.641 1.04-2.482M23.256 46.18c-.02-.42-.02-.84-.06-1.26.3 0 .58.02.86.02s.58.02.86.02c.48 0 .9 0 1.28-.02.38 0 .62-.02.76-.02-.02.1-.04.24-.04.4 0 .1 0 .18.02.24 0 .06.02.12.04.2-.2-.02-.4-.02-.62-.04-.22-.02-.44-.02-.66-.04-.22-.02-.4-.02-.58-.04h-.36c-.02.36-.04.72-.04 1.06v1.062c.42 0 .8-.02 1.16-.04.34-.02.7-.04 1.08-.06-.02.12-.04.2-.04.26-.02.06-.02.12-.02.18 0 .04 0 .1.02.16 0 .06.02.14.04.24-.74-.06-1.48-.08-2.22-.08v1.241c0 .42 0 .82.04 1.221.36 0 .74-.02 1.12-.04.38-.02.74-.06 1.12-.1-.02.08-.02.14-.02.2v.48c0 .06.02.1.02.14H23.215l.06-1.24c.02-.42.02-.901.02-1.442v-1.32c-.02-.481-.02-.961-.04-1.382M30.195 48.542v.4c0 .54 0 1.021.02 1.442.02.42.02.84.06 1.24-.12 0-.24-.02-.36-.02h-.88c-.14 0-.26 0-.36.02.04-.4.06-.82.06-1.24.02-.42.02-.901.02-1.442v-1.32c0-.541 0-1.021-.02-1.442l-.06-1.26c.12.02.24.02.36.04s.28.02.44.02c.18 0 .38 0 .6-.02.22-.02.5-.02.84-.02.24 0 .46 0 .64.02s.32.04.46.06c.12.02.24.06.34.1.1.04.18.1.28.14.2.14.36.32.46.54.12.22.18.46.18.76 0 .48-.12.861-.4 1.161-.26.3-.64.5-1.12.641.32.56.64 1.1 1 1.661.36.56.72 1.101 1.08 1.642-.14 0-.3-.02-.44-.02h-.88c-.14 0-.3 0-.44.02l-1.78-3.123h-.1zm1.46-2.482a.707.707 0 0 0-.28-.38 1.38 1.38 0 0 0-.46-.18c-.2-.02-.42-.04-.68-.04-.02.88-.02 1.761-.02 2.662.04 0 .08.02.1.02h.1c.44 0 .76-.12.98-.34.22-.24.34-.58.34-1.041.02-.3-.02-.52-.08-.7M34.834 45.72c-.02-.3-.02-.58-.04-.8.18.02.34.04.44.04.12 0 .26-.02.44-.04.72.78 1.42 1.56 2.12 2.321.7.76 1.4 1.541 2.14 2.322v-2.722c0-.3 0-.6-.02-.86 0-.261-.02-.481-.02-.681 0-.18-.02-.32-.04-.38.18.02.32.04.44.04s.26-.02.44-.04c-.04.6-.06 1.12-.08 1.6-.02.48-.04.921-.04 1.362-.02.42-.02.84-.02 1.26v2.482c-.12 0-.26-.02-.4-.02s-.26 0-.38.02a101.258 101.258 0 0 0-4.28-4.703c0 .18 0 .38-.02.56v2.702c0 .28.02.5.02.681 0 .18.02.34.02.46s.02.22.02.28c-.08 0-.16-.02-.24-.02h-.22c-.14 0-.3 0-.44.02.02-.06.02-.24.04-.56.02-.32.04-.7.06-1.16.02-.461.04-.962.06-1.502.02-.54.02-1.06.02-1.541 0-.44 0-.8-.02-1.121M43.413 49.443c-.06.72-.1 1.461-.16 2.182-.08 0-.16-.02-.24-.02h-.44c-.08 0-.16 0-.22.02.2-1.121.4-2.222.56-3.343.16-1.1.32-2.222.44-3.363.08.02.14.02.2.02.06.02.12.02.2.02.06 0 .12 0 .18-.02.06 0 .14-.02.2-.02.18.38.36.78.56 1.181.2.4.38.8.58 1.201.2.4.38.78.58 1.181.2.38.38.74.56 1.101.4-.72.78-1.481 1.16-2.282.399-.8.759-1.581 1.119-2.382.16.02.3.04.42.04s.24-.02.42-.04c.06.56.14 1.161.2 1.802.08.64.14 1.28.22 1.901.08.6.14 1.181.22 1.722.08.54.14.96.2 1.28-.12 0-.26-.02-.4-.02h-.8c-.14 0-.28 0-.42.02-.04-.66-.08-1.4-.16-2.181-.08-.78-.14-1.561-.22-2.322h-.02c-.38.76-.74 1.521-1.1 2.262-.36.74-.72 1.481-1.06 2.242h-.4c-.36-.741-.7-1.462-1.06-2.182-.34-.72-.7-1.461-1.08-2.222h-.02c-.08.74-.16 1.481-.22 2.222M51.951 46.18l-.06-1.26c.3 0 .58.02.86.02s.58.02.86.02c.48 0 .92 0 1.28-.02.38 0 .62-.02.76-.02-.02.1-.04.24-.04.4v.24c0 .06.02.12.04.2-.18-.02-.4-.02-.62-.04-.22-.02-.44-.02-.66-.04-.22-.02-.4-.02-.58-.04h-.36c-.02.36-.04.72-.04 1.06v1.062c.42 0 .8-.02 1.16-.04.34-.02.7-.04 1.08-.06-.02.12-.04.2-.04.26s-.02.12-.02.18c0 .04 0 .1.02.16s.02.14.04.24c-.74-.06-1.48-.08-2.22-.08v1.241c0 .42.02.82.04 1.221.36 0 .74-.02 1.12-.04.38-.02.74-.06 1.12-.1-.02.08-.02.14-.02.2v.48c0 .06.02.1.02.14H51.93l.06-1.24c0-.42.02-.901.02-1.442v-1.32c-.06-.481-.06-.961-.06-1.382M57.49 45.72c-.02-.3-.02-.58-.04-.8.18.02.34.04.44.04.12 0 .26-.02.44-.04.72.78 1.42 1.56 2.12 2.321.7.76 1.4 1.541 2.14 2.322v-2.722c0-.3 0-.6-.02-.86 0-.261-.02-.481-.02-.681-.02-.18-.02-.32-.04-.38.18.02.32.04.44.04s.26-.02.44-.04c-.04.6-.06 1.12-.08 1.6-.02.48-.04.921-.04 1.362-.02.42-.02.84-.02 1.26v2.482c-.12 0-.26-.02-.4-.02s-.28 0-.38.02a101.258 101.258 0 0 0-4.28-4.703V50.183c0 .28 0 .5.02.681 0 .18.02.34.02.46s.02.22.02.28c-.08 0-.16-.02-.24-.02h-.22c-.14 0-.3 0-.44.02.02-.06.02-.24.04-.56.02-.32.04-.7.06-1.16.02-.461.04-.962.06-1.502.02-.54.02-1.06.02-1.541-.02-.44-.02-.8-.04-1.121M66.469 45.98c0-.16-.02-.28-.02-.34-.1 0-.22 0-.36.02-.14 0-.3.02-.46.02-.16.02-.32.02-.5.04-.16.02-.32.04-.46.06.02-.06.02-.14.04-.22.02-.08.02-.14.02-.22 0-.08 0-.14-.02-.22 0-.08-.02-.14-.04-.22.22 0 .42.02.6.02h.54c.18 0 .38 0 .6.02h1.56c.22 0 .42 0 .6-.02h.52c.18 0 .36-.02.56-.02-.02.06-.02.14-.04.22-.02.08-.02.14-.02.22 0 .08 0 .14.02.22.02.08.02.14.04.22-.12-.02-.28-.04-.44-.06-.16-.02-.32-.02-.48-.04-.16-.02-.32-.02-.46-.02s-.26-.02-.36-.02c0 .04-.02.08-.02.14v3.162c0 .54 0 1.021.02 1.442 0 .42.02.84.06 1.24-.12 0-.24-.02-.36-.02h-.88c-.12 0-.24 0-.36.02.04-.4.04-.82.06-1.24.02-.42.02-.901.02-1.442v-2.441c.02-.2.02-.36.02-.52M74.188 46.94c.18-.42.42-.8.76-1.12.32-.32.72-.56 1.18-.76.46-.18.98-.28 1.54-.28.519 0 .999.08 1.459.22.44.14.84.36 1.18.64.34.28.6.66.78 1.1.2.441.28.961.28 1.542 0 .48-.1.94-.28 1.361-.18.42-.44.8-.78 1.1-.32.321-.72.561-1.18.741-.46.18-.96.26-1.5.26-.52 0-1-.06-1.46-.18-.44-.14-.84-.34-1.18-.62-.34-.28-.6-.64-.8-1.08-.2-.441-.3-.962-.3-1.582.02-.48.12-.92.3-1.341m5.42 0c-.1-.34-.26-.62-.44-.86-.18-.241-.42-.421-.68-.541a2.07 2.07 0 0 0-.86-.18c-.34 0-.64.08-.9.24-.26.16-.48.38-.66.64-.18.28-.32.6-.42.961-.1.36-.14.76-.14 1.181 0 .52.06.96.16 1.321.1.36.26.64.44.86.18.22.4.381.66.481.24.1.5.14.78.14.3 0 .58-.06.84-.18s.5-.32.7-.56c.2-.26.36-.58.48-.961.12-.4.18-.86.18-1.381.02-.46-.04-.84-.14-1.161M82.526 46.18l-.06-1.26c.3 0 .58.02.86.02s.58.02.86.02c.48 0 .9 0 1.28-.02.38 0 .62-.02.76-.02-.02.1-.04.24-.04.4 0 .1 0 .18.02.24 0 .06.02.12.04.2-.18-.02-.4-.02-.62-.04-.22-.02-.44-.02-.66-.04-.22-.02-.4-.02-.58-.04h-.36c-.02.36-.04.72-.04 1.06v1.062c.42 0 .8-.02 1.14-.04.34-.02.7-.04 1.08-.06-.02.12-.04.2-.04.26s-.02.12-.02.18c0 .04 0 .1.02.16s.02.14.04.24c-.74-.06-1.48-.08-2.22-.08v.5c0 .54 0 1.021.02 1.442l.06 1.22c-.1 0-.22-.02-.36-.02h-.88c-.14 0-.26 0-.36.02l.06-1.24c.02-.42.02-.901.02-1.442v-1.32c0-.501-.02-.981-.02-1.402M91.645 46.18l-.06-1.26c.1.02.24.02.36.02.14.02.28.02.44.02.22 0 .46 0 .72-.02.26-.02.62-.02 1.04-.02.56 0 1.08.06 1.52.14.459.1.859.28 1.179.52.32.24.6.56.78.98.18.4.28.921.28 1.542 0 .54-.08 1.02-.28 1.461-.18.44-.42.8-.74 1.12-.3.301-.66.541-1.08.701-.4.16-.84.24-1.3.24h-2.58c-.12 0-.24 0-.36.02l.06-1.24c.02-.42.02-.901.02-1.442v-1.32c.02-.561.02-1.041 0-1.462m1.46 3.483v1.1c0 .161.02.261.02.301.1 0 .22.02.34.02h.5c.74 0 1.32-.24 1.74-.74.44-.5.64-1.261.64-2.282 0-.4-.06-.76-.16-1.081-.1-.32-.26-.58-.46-.82-.2-.22-.42-.401-.7-.521-.28-.12-.58-.18-.92-.18-.24 0-.42 0-.58.02-.14 0-.3.02-.44.04 0 .04 0 .14-.02.3v3.843h.04zM100.903 51.625c-.36-.08-.68-.24-.94-.44-.26-.2-.48-.461-.64-.801-.16-.32-.24-.721-.24-1.181V45.66c0-.32-.02-.56-.04-.74.12.02.26.02.4.02.14.02.28.02.4.02s.26 0 .4-.02c.14 0 .28-.02.4-.02-.06.64-.1 1.22-.12 1.76-.02.541-.02 1.102-.02 1.662 0 .6.04 1.08.12 1.441.08.36.22.64.38.84.16.201.36.321.6.401.24.06.52.1.84.1.4 0 .7-.1.92-.3.22-.2.38-.46.5-.78s.18-.701.2-1.122c.02-.42.04-.86.04-1.32 0-.461 0-.901-.02-1.342l-.06-1.34c.1.02.18.02.26.02.08.02.16.02.24.02.08 0 .16 0 .24-.02.08 0 .16-.02.24-.02-.02.14-.02.34-.04.58-.02.24-.02.52-.04.84-.02.32-.02.66-.04 1.041 0 .38-.02.78-.02 1.201 0 1.141-.24 1.942-.74 2.442-.5.5-1.2.74-2.14.74-.32 0-.7-.04-1.08-.14M106.302 46.18c-.02-.42-.04-.84-.08-1.26.12.02.24.02.36.02.14 0 .28.02.44.02.28 0 .58 0 .88-.02.3-.02.6-.02.88-.02.3 0 .56.02.8.08s.46.14.62.28c.18.12.32.28.4.46.1.2.14.42.14.68 0 .26-.06.5-.16.681-.12.2-.24.36-.4.48-.16.12-.32.24-.52.3-.18.06-.36.12-.5.14v.02c.14 0 .32.04.54.1.2.06.4.16.58.281.18.12.34.3.46.5s.18.44.18.741c0 .34-.06.64-.18.9-.12.24-.3.441-.52.601-.22.16-.46.26-.72.32-.28.06-.56.1-.86.1h-1.98c-.18 0-.34 0-.44.02.04-.4.06-.82.08-1.24.02-.42.02-.901.02-1.442v-1.32c0-.521-.02-1.001-.02-1.422m2.96 0c-.04-.14-.1-.26-.18-.36-.08-.1-.2-.18-.32-.24-.14-.06-.3-.1-.5-.1h-.3c-.06 0-.12.02-.18.02-.02.24-.02.48-.04.74v1.621h.44c.14 0 .28-.02.4-.08.14-.06.26-.12.36-.24.1-.1.18-.24.24-.38.06-.16.1-.34.1-.54.04-.16.02-.3-.02-.44m-.18 2.561c-.2-.22-.5-.34-.9-.34h-.42v2.642h.54c.14 0 .28-.02.4-.08.14-.06.24-.14.34-.26.1-.12.18-.26.24-.42.06-.16.08-.36.08-.56.02-.401-.08-.742-.28-.982M117.48 51.625c-.16 0-.3-.02-.44-.02h-.84c-.14 0-.28 0-.42.02-.1-.32-.22-.64-.32-.981-.12-.34-.22-.66-.34-1.001-.22 0-.42-.02-.62-.02h-1.119c-.16 0-.34 0-.52.02-.12.32-.24.66-.36 1-.12.321-.2.661-.3.982-.08 0-.16-.02-.24-.02h-.48c-.08 0-.16 0-.26.02.08-.16.18-.4.3-.701.14-.3.28-.64.44-1.02.16-.381.32-.781.5-1.222l.54-1.32c.18-.441.36-.882.54-1.302.18-.42.32-.82.48-1.2.06.02.12.02.18.04s.12.02.18.02.12 0 .18-.02c.06 0 .12-.02.18-.04.2.56.44 1.14.66 1.78.24.641.48 1.262.72 1.862.24.6.48 1.181.7 1.741.26.54.46 1.001.66 1.382m-3.46-4.884c-.16.4-.34.78-.48 1.16-.16.38-.3.781-.44 1.162h1.78c-.14-.4-.28-.781-.42-1.161-.14-.38-.3-.761-.44-1.161M118.34 46.18l-.06-1.26c.1.02.22.02.36.02.12.02.28.02.44.02.16 0 .3 0 .44-.02.14 0 .24-.02.36-.02l-.06 1.26c-.02.42-.02.901-.02 1.441v1.321c0 .54 0 1.021.02 1.442.02.42.02.84.06 1.24-.12 0-.24-.02-.36-.02h-.88c-.14 0-.26 0-.36.02l.06-1.24c.02-.42.02-.901.02-1.442v-1.32c0-.541-.02-1.021-.02-1.442"/>
    </g>
</svg>
