<?xml version="1.0" encoding="UTF-8" standalone="no"?>
<svg xmlns="http://www.w3.org/2000/svg" viewBox="0 0 170.08 170.08">
  <defs>
    <linearGradient id="a" x1="7.69" y1="83.19" x2="165.92" y2="83.19" gradientUnits="userSpaceOnUse">
      <stop offset="0" stop-color="#95348a" />
      <stop offset=".64" stop-color="#b53f74" />
      <stop offset="1" stop-color="#eb6632" />
    </linearGradient>
  </defs>
  <path d="M83.15 130a14.46 14.46 0 0 1-1.47-.07 14.74 14.74 0 0 1-12.06-8.55L54 91.38l-7.39 21.2a14.93 14.93 0 0 1-13.77 9.12H7.69v-15h25.09l7.43-21.31a14.75 14.75 0 0 1 13.63-9.12H54a14.76 14.76 0 0 1 13.54 8.62l15.59 29.88 20.15-67.86a14.76 14.76 0 0 1 2-4.2 14.93 14.93 0 0 1 13.72-6.2A14.73 14.73 0 0 1 131 45l9.93 18.71a8.42 8.42 0 0 0 7.69 5h17.3v15h-17.3a23.43 23.43 0 0 1-21.28-13.61l-9.83-18.5-20.1 67.73A14.62 14.62 0 0 1 83.15 130z" fill="url(#a)" />
</svg>