<?xml version="1.0" encoding="UTF-8"?> <svg xmlns="http://www.w3.org/2000/svg" id="Government" width="62.727" height="62.85" viewBox="0 0 62.727 62.85"><rect id="Rectangle_16979" data-name="Rectangle 16979" width="2" height="2" transform="translate(27.053 39.35)" fill="#fff"></rect><rect id="Rectangle_16980" data-name="Rectangle 16980" width="2" height="2" transform="translate(30.053 39.35)" fill="#fff"></rect><rect id="Rectangle_16981" data-name="Rectangle 16981" width="2" height="2" transform="translate(34.053 39.35)" fill="#fff"></rect><path id="Path_38881" data-name="Path 38881" d="M63.227,46.155V40.386H49.478V38.3h2.946V32.53H42.6V27.5H45.55V21.727H42.626a10.724,10.724,0,0,0-9.842-9.842V8.838H40.64V1.1H32.784V0H30.943V11.886a10.712,10.712,0,0,0-9.719,9.842H18.176V27.5h2.946V32.53H11.3V38.3h2.946v2.087H.5v5.769H2.464V57.08H.5V62.85H63.227V57.08H61.262V46.155Zm-1.841-3.928v2.087H49.478V42.227ZM53.406,57.08V46.155h2.087V57.08ZM49.478,46.155h2.087V57.08H49.478ZM40.763,32.53H38.676V27.5h2.087ZM28.979,27.5V32.53H26.892V27.5Zm1.841,0h2.087V32.53H30.82Zm3.928,0h2.087V32.53H34.748ZM38.8,2.946V7H32.784V2.946Zm-6.874,10.8a8.86,8.86,0,0,1,8.852,7.979h-17.7A8.86,8.86,0,0,1,31.925,13.748Zm-11.907,9.82H43.709v2.087H20.018ZM22.964,27.5H25.05V32.53H22.964Zm-9.82,6.874H50.583v2.087H13.144ZM47.637,38.3V57.08H39.658v-7H42.6V44.314H21.122v5.769h2.946v7H16.09V38.3ZM22.964,48.242V46.155h17.8v2.087ZM28,50.083v7H25.91v-7Zm1.841,0h4.051v7H29.838Zm5.892,0h2.087v7H35.73ZM10.32,46.155v8.838h1.841V46.155h2.087V57.08H8.233V46.155ZM2.341,42.227H14.248v2.087H2.341Zm1.964,3.928H6.392V57.08H4.305Zm57.08,14.853H2.341V58.922H61.385ZM59.421,57.08H57.334V46.155h2.087Z" transform="translate(-0.5)" fill="#fff"></path></svg> 