<svg width="27" height="33" viewBox="0 0 27 33" fill="none" xmlns="http://www.w3.org/2000/svg">
<path d="M23.7625 12.7358L23.7626 12.7357C24.1698 12.2488 24.6487 11.7966 25.1106 11.3606C25.2077 11.2689 25.3041 11.1778 25.399 11.0873C23.9864 9.35614 22.1164 8.55576 19.8474 8.45421L23.7625 12.7358ZM23.7625 12.7358C21.6047 15.3179 21.5058 19.3405 23.5258 22.0387C24.2768 23.0426 25.2166 23.9045 26.4087 24.4539C25.5173 26.9133 24.1847 29.1032 22.4318 31.0457M23.7625 12.7358L22.4318 31.0457M22.4318 31.0457C21.7851 31.7618 21.086 32.1913 20.3486 32.3669C19.6114 32.5425 18.7934 32.4743 17.8915 32.1234C17.7838 32.0814 17.675 32.0383 17.5651 31.9949C16.4842 31.5675 15.2975 31.0983 13.9606 31.1557L13.9606 31.1557C12.7814 31.2064 11.7246 31.5884 10.7336 32.0049L10.7334 32.005C9.62514 32.4712 8.62556 32.6999 7.60237 32.2773C6.79835 31.9449 6.15839 31.3526 5.5528 30.6417L5.55262 30.6415C3.10462 27.7708 1.51089 24.4855 0.845111 20.7823C0.401872 18.3168 0.433989 15.9027 1.34733 13.5689L1.34737 13.5688C2.5515 10.4899 5.57274 8.24327 8.97463 8.60508L8.97477 8.6051C9.88027 8.70113 10.8049 9.04286 11.7178 9.43472L11.7179 9.43475C13.0823 10.0201 14.387 10.0393 15.7583 9.43364C17.105 8.83899 18.4277 8.39088 19.8473 8.4542L22.4318 31.0457Z" stroke="#3B3F54"/>
<path d="M15.4646 3.02518C16.4949 1.75036 17.9642 0.776764 19.635 0.54436C19.7234 2.05852 19.0374 3.70069 17.9272 4.97923C16.8035 6.27335 15.3412 7.08873 13.9877 7.07137C13.8965 5.80471 14.4362 4.29767 15.4646 3.02518Z" stroke="#3B3F54"/>
</svg>
