<svg width="32" height="32" viewBox="0 0 32 32" xmlns="http://www.w3.org/2000/svg">
    <path d="M25.801 2v18.89h5.695l-7.59 9.27v-7.343l-2.652.001c-1.528 4.278-5.57 7.343-10.303 7.343-6.04 0-10.955-4.993-10.955-11.13 0-6.136 4.914-11.129 10.955-11.129 2.911 0 5.56 1.16 7.525 3.047L25.8 2zm-14.85 7.72c-5.054 0-9.166 4.177-9.166 9.312 0 5.134 4.112 9.312 9.166 9.312 3.729 0 6.944-2.273 8.375-5.526H8.758l8.571-10.469a9.063 9.063 0 0 0-6.378-2.63zm16.49 13.102h-1.633v1.996l1.634-1.996zm-8.873-8.967-5.755 7.03 7.123.001c.12-.6.182-1.22.182-1.854a9.363 9.363 0 0 0-1.516-5.125l-.034-.05v-.002zM23.9 7.343l-4.148 5.067a11.187 11.187 0 0 1 2.155 6.622c0 .631-.052 1.25-.152 1.854H23.9V7.343z" fill="#008954" fill-rule="evenodd"/>
</svg>
