<svg width="19" height="20" viewBox="0 0 19 20" xmlns="http://www.w3.org/2000/svg">
    <g fill="none" fill-rule="evenodd">
        <path d="M4.919 2.327C7.949.574 10.98.714 14.01 2.328c.337.18.683.304.882-.16.174-.407-.086-.629-.403-.805C12.88.471 11.179-.005 9.365 0c-1.749-.015-3.38.453-4.907 1.357-.323.19-.627.421-.384.867.214.393.533.283.845.103M3.986 16.438a.499.499 0 1 0 0 .997.499.499 0 0 0 0-.997" fill="#1C1C1A"/>
        <path d="m8.75 19.093-.006-.004-.017-.009c-.5-.255-1.33-1.006-1.383-1.044h-.002a.545.545 0 0 0-.128-.07c-.277-.098-.59.025-.7.275a.442.442 0 0 0 .028.407l.007.023c.668.816 1.73 1.222 1.73 1.222.258.092.552-.023.655-.257a.433.433 0 0 0-.185-.543" fill="#E72227"/>
        <path d="M10.463 6.974a.499.499 0 1 0-.997.001.499.499 0 0 0 .997-.001M15.944 14.944a.499.499 0 1 0 .001.997.499.499 0 0 0 0-.997M11.958 12.951a.499.499 0 1 0 0 .997.499.499 0 0 0 0-.997" fill="#1C1C1A"/>
        <path d="M11.958 12.951a.499.499 0 1 0 0 .997.499.499 0 0 0 0-.997M18.435 9.464a.499.499 0 1 0 .002.998.499.499 0 0 0-.002-.998M17.937 7.97a.499.499 0 1 0-.997.001.499.499 0 0 0 .997-.001M2.99 3.487a.499.499 0 1 0-.001-.998.499.499 0 0 0 0 .998M.974 8.468a.516.516 0 0 0-.452.28H.521c-.003.005-.004.01-.006.016a.551.551 0 0 0-.043.116C.028 10.12 0 11.407 0 11.407c0 .302.234.548.52.548a.527.527 0 0 0 .506-.423h.001v-.003a.569.569 0 0 0 .014-.122c0-.019-.003-.037-.005-.056.07-1.23.417-2.12.417-2.12a.57.57 0 0 0 .042-.215.535.535 0 0 0-.52-.548" fill="#1C1C1A"/>
        <path d="M7.157 5c-4.29 1.663-5.397 5.64-4.232 9.53a.523.523 0 0 0 .78.341.503.503 0 0 0 .245-.53l-.007-.026a15.437 15.437 0 0 1-.277-1.108C2.832 9.08 5.627 5.54 9.729 5.54c3.767 0 6.3 2.284 6.3 5.72 0 1.367-.561 2.048-1.557 2.028h-.067l-.006.006a.511.511 0 0 0-.454.5c0 .233.164.428.385.487a.188.188 0 0 0 .03.009l.012.001a.72.72 0 0 0 .04.004c.019.002.037.006.056.006l.02-.002c.104.003.23.002.23.002 1.635-.126 2.223-1.448 2.223-3.358 0-4.762-5.226-7.707-9.784-5.942" fill="#1C1C1A"/>
        <path d="M6.978 3.509c.028-.005.053-.015.08-.022l-.082.022h.002" fill="#00ADEE"/>
        <path d="m7.464 2.917-.006-.026a.505.505 0 0 0-.483-.4c-.03 0-.06.004-.09.01-.037.01-.074.024-.112.036-.813.263-1.487.621-2.179 1.06-.953.605-1.712 1.287-2.513 2.377-.114.155-.318.36-.453.579a.545.545 0 0 0-.124.295.464.464 0 0 0 .137.431l.015.015a.804.804 0 0 0 .059.052l.007.006c.539.42.88-.375 1.121-.703 1.263-1.727 2.483-2.627 4.218-3.113l.035-.01a.494.494 0 0 0 .134-.057.532.532 0 0 0 .234-.552M16.877 6.233a.504.504 0 0 0-.089-.12c-1.855-2.4-4.334-3.561-7.305-3.622H8.98a.507.507 0 0 0-.51.504c0 .278.229.504.51.504a8.237 8.237 0 0 1 7.028 3.247l.02.025a.508.508 0 0 0 .913-.3.491.491 0 0 0-.064-.238M13.945 11.143a3.773 3.773 0 0 0-.056-.472c-.225-1.298-.924-2.472-1.859-3.2.08.07.14.164.165.273l.007.025a.513.513 0 0 1-.23.534.472.472 0 0 1-.249.074.468.468 0 0 1-.263-.082c.767.68 1.415 1.805 1.53 2.939.036.364.07.735.502.72.49-.016.47-.438.453-.81" fill="#1C1C1A"/>
        <path d="m12.456 7.472.046.034-.046-.034M11.669 8.64a8.228 8.228 0 0 0-.21-.172c.064.065.133.123.21.172" fill="#00ADEE"/>
        <path d="M12.046 8.46a.496.496 0 0 0 .401-.585l-.007-.025a.501.501 0 0 0-.168-.265l-.019-.014a.499.499 0 0 0-.65.746l.086.071a.494.494 0 0 0 .357.071M9.97 8.967h-.005l.006.001zM12.012 17.441c-.294-.103-.6-.183-.879-.316-2.25-1.073-3.46-2.83-3.575-5.256-.052-1.084.672-1.846 1.684-1.885l.014-.004c.062-.01.12-.03.172-.059a.507.507 0 0 0 .275-.445.506.506 0 0 0-.271-.443.533.533 0 0 0-.238-.065l-.018-.002c-.011 0-.023.003-.035.004-1.354.084-2.445 1.048-2.623 2.357-.4 2.949 2.18 6.481 5.164 7.073.34.068.648.05.753-.33.091-.333-.117-.522-.423-.629M11.953 11.374a.469.469 0 0 0-.029-.11c-.099-.36-.252-.78-.473-1.065a.511.511 0 0 0-.055-.07c-.004-.003-.007-.008-.01-.012 0 0-.003 0-.004-.002a.554.554 0 0 0-.385-.153c-.294 0-.534.221-.534.492 0 .052.011.101.028.148l-.002.002a1.82 1.82 0 0 0 .031.067c.056.121.178.407.322.849a.484.484 0 0 0 .042.129c.088.18.284.306.512.306a.591.591 0 0 0 .269-.066.512.512 0 0 0 .288-.515" fill="#1C1C1A"/>
        <path d="m6.477 15.94.074.12a1.138 1.138 0 0 0-.074-.12M5.98 16.438c.032.068.071.133.117.193a14.752 14.752 0 0 1-.075-.125 3.174 3.174 0 0 1-.043-.068" fill="#E72227"/>
        <path d="M7.96 6.974c-.078.002-.22.062-.22.062-2.021.692-3.341 2.67-3.251 5.016.084 1.467.749 3.233 1.176 3.967a2.18 2.18 0 0 0 .094.16l.031.054a.48.48 0 0 0 .647.132.51.51 0 0 0 .188-.672l-.031-.052a7.518 7.518 0 0 1-1.112-3.996A3.9 3.9 0 0 1 8.17 7.948c.044-.014.172-.105.183-.141a.512.512 0 0 0 .117-.34.5.5 0 0 0-.51-.493" fill="#00AC75"/>
        <path d="M14.672 15.905a.528.528 0 0 0-.241-.067l-.09.007c-2.276.197-4.126-1.32-4.323-3.577-.034-.391-.022-.849-.563-.809-.5.037-.504.535-.478.93.166 2.549 2.326 4.52 4.945 4.547a3.712 3.712 0 0 0 .617-.056.529.529 0 0 0 .408-.514.528.528 0 0 0-.275-.461" fill="#1C1C1A"/>
    </g>
</svg>
